<?xml version="1.0" encoding="UTF-8" standalone="no"?>
<!DOCTYPE svg PUBLIC "-//W3C//DTD SVG 1.1//EN" "http://www.w3.org/Graphics/SVG/1.1/DTD/svg11.dtd">
<svg width="100%" height="100%" viewBox="0 0 20 20" version="1.1" xmlns="http://www.w3.org/2000/svg" xmlns:xlink="http://www.w3.org/1999/xlink" xml:space="preserve" xmlns:serif="http://www.serif.com/" style="fill-rule:evenodd;clip-rule:evenodd;stroke-linecap:round;stroke-linejoin:round;stroke-miterlimit:10;">
    <g transform="matrix(1,0,0,1,-40,-60)">
        <g id="_2" serif:id="2" transform="matrix(1,0,0,1,-530,60)">
            <rect x="570" y="0" width="20" height="20" style="fill:none;"/>
            <g id="_21" serif:id="2" transform="matrix(0.0889855,0,0,-0.0889855,78.9672,194.022)">
                <path d="M5661,2013L5600,2013C5600,2013 5652,2074 5652,2074C5652,2074 5657,2080 5657,2080L5660,2088L5661,2096L5660,2104L5656,2112L5650,2118L5642,2122L5634,2123L5623,2122L5613,2117L5605,2109L5600,2099" style="fill:none;fill-rule:nonzero;stroke:rgb(11,171,115);stroke-width:6.74px;"/>
            </g>
        </g>
    </g>
</svg>
