<?xml version="1.0" encoding="UTF-8" standalone="no"?>
<!DOCTYPE svg PUBLIC "-//W3C//DTD SVG 1.1//EN" "http://www.w3.org/Graphics/SVG/1.1/DTD/svg11.dtd">
<svg width="100%" height="100%" viewBox="0 0 20 20" version="1.1" xmlns="http://www.w3.org/2000/svg" xmlns:xlink="http://www.w3.org/1999/xlink" xml:space="preserve" xmlns:serif="http://www.serif.com/" style="fill-rule:evenodd;clip-rule:evenodd;stroke-linecap:round;stroke-linejoin:round;stroke-miterlimit:10;">
    <g transform="matrix(1,0,0,1,-100,-60)">
        <g id="_5" serif:id="5" transform="matrix(1,0,0,1,-470,60)">
            <rect x="570" y="0" width="20" height="20" style="fill:none;"/>
            <g id="_51" serif:id="5" transform="matrix(0.0889855,0,0,-0.0889855,52.6275,211.196)">
                <path d="M5896,2206L5933,2206L5942,2208L5950,2213L5955,2221L5957,2230L5957,2243L5956,2250L5952,2257L5947,2263L5940,2266L5933,2267L5896,2267C5896,2267 5896,2316 5896,2316C5896,2316 5957,2316 5957,2316" style="fill:none;fill-rule:nonzero;stroke:rgb(11,171,115);stroke-width:6.74px;"/>
            </g>
        </g>
    </g>
</svg>
