<?xml version="1.0" encoding="UTF-8" standalone="no"?>
<!DOCTYPE svg PUBLIC "-//W3C//DTD SVG 1.1//EN" "http://www.w3.org/Graphics/SVG/1.1/DTD/svg11.dtd">
<svg width="100%" height="100%" viewBox="0 0 20 20" version="1.1" xmlns="http://www.w3.org/2000/svg" xmlns:xlink="http://www.w3.org/1999/xlink" xml:space="preserve" xmlns:serif="http://www.serif.com/" style="fill-rule:evenodd;clip-rule:evenodd;stroke-linecap:round;stroke-linejoin:round;stroke-miterlimit:10;">
    <g transform="matrix(1,0,0,1,-180,-60)">
        <g id="_9" serif:id="9" transform="matrix(1,0,0,1,-390,60)">
            <rect x="570" y="0" width="20" height="20" style="fill:none;"/>
            <g id="_91" serif:id="9" transform="matrix(-0.0889855,0,0,-0.0889855,1144.66,202.476)">
                <path d="M6315,2157L6351,2157L6359,2158L6366,2162L6371,2167L6375,2174L6376,2182L6376,2188L6374,2197L6370,2206L6363,2212L6355,2217L6345,2218L6336,2217L6327,2212L6320,2206L6316,2197L6315,2188L6315,2157L6316,2144L6321,2132L6329,2122L6339,2115L6351,2110L6364,2108" style="fill:none;fill-rule:nonzero;stroke:rgb(11,171,115);stroke-width:6.74px;"/>
            </g>
        </g>
    </g>
</svg>
