<?xml version="1.0" encoding="UTF-8" standalone="no"?>
<!DOCTYPE svg PUBLIC "-//W3C//DTD SVG 1.1//EN" "http://www.w3.org/Graphics/SVG/1.1/DTD/svg11.dtd">
<svg width="100%" height="100%" viewBox="0 0 20 20" version="1.1" xmlns="http://www.w3.org/2000/svg" xmlns:xlink="http://www.w3.org/1999/xlink" xml:space="preserve" xmlns:serif="http://www.serif.com/" style="fill-rule:evenodd;clip-rule:evenodd;stroke-linecap:round;stroke-linejoin:round;stroke-miterlimit:10;">
    <g transform="matrix(1,0,0,1,-160,-90)">
        <g id="and" transform="matrix(1,0,0,1,-410,90)">
            <rect x="570" y="0" width="20" height="20" style="fill:none;"/>
            <g id="and1" serif:id="and" transform="matrix(0.0889855,0,0,-0.0889855,27.5336,210.039)">
                <path d="M6245,2230C6245,2230 6199,2196 6199,2196L6195,2194L6190,2193L6183,2194L6177,2198L6173,2204C6173,2204 6172,2211 6172,2211L6173,2216L6175,2221L6212,2276C6212,2276 6214,2283 6214,2283L6214,2291L6210,2297L6204,2302L6196,2303L6189,2302L6183,2297L6179,2291L6178,2283L6181,2276L6233,2193" style="fill:none;fill-rule:nonzero;stroke:rgb(11,171,115);stroke-width:6.74px;"/>
            </g>
        </g>
    </g>
</svg>
