<?xml version="1.0" encoding="UTF-8" standalone="no"?>
<!DOCTYPE svg PUBLIC "-//W3C//DTD SVG 1.1//EN" "http://www.w3.org/Graphics/SVG/1.1/DTD/svg11.dtd">
<svg width="100%" height="100%" viewBox="0 0 20 20" version="1.1" xmlns="http://www.w3.org/2000/svg" xmlns:xlink="http://www.w3.org/1999/xlink" xml:space="preserve" xmlns:serif="http://www.serif.com/" style="fill-rule:evenodd;clip-rule:evenodd;stroke-linecap:round;stroke-linejoin:round;stroke-miterlimit:10;">
    <g transform="matrix(1,0,0,1,-60,-90)">
        <g id="at" transform="matrix(1,0,0,1,-510,90)">
            <rect x="570" y="0" width="20" height="20" style="fill:none;"/>
            <g id="_-1" serif:id="@1" transform="matrix(-0.0889855,0,0,-0.0889855,1087.66,210.885)">
                <path d="M5687,2294L5705,2294L5712,2293L5718,2289L5722,2283L5723,2276L5723,2239L5722,2232L5718,2226L5712,2222L5705,2220L5698,2222L5692,2226L5688,2232L5687,2239" style="fill:none;fill-rule:nonzero;stroke:rgb(11,171,115);stroke-width:6.74px;"/>
            </g>
            <g id="_-2" serif:id="@2" transform="matrix(0,0.0889855,-0.0889855,0,788.315,-498.33)">
                <path d="M5676,2323L5734,2323L5741,2321L5746,2317L5749,2311L5749,2304L5746,2298L5741,2294L5734,2292L5688,2292L5676,2294L5664,2299L5654,2306L5646,2317L5641,2328L5639,2341L5641,2354L5646,2366L5654,2376L5664,2384L5676,2388L5688,2390L5740,2390L5752,2389L5763,2384L5772,2378L5779,2369L5784,2358L5786,2347" style="fill:none;fill-rule:nonzero;stroke:rgb(11,171,115);stroke-width:6.74px;"/>
            </g>
        </g>
    </g>
</svg>
