<?xml version="1.0" encoding="UTF-8" standalone="no"?>
<!DOCTYPE svg PUBLIC "-//W3C//DTD SVG 1.1//EN" "http://www.w3.org/Graphics/SVG/1.1/DTD/svg11.dtd">
<svg width="100%" height="100%" viewBox="0 0 20 20" version="1.1" xmlns="http://www.w3.org/2000/svg" xmlns:xlink="http://www.w3.org/1999/xlink" xml:space="preserve" xmlns:serif="http://www.serif.com/" style="fill-rule:evenodd;clip-rule:evenodd;stroke-linecap:round;stroke-linejoin:round;stroke-miterlimit:10;">
    <g transform="matrix(1,0,0,1,-100,-90)">
        <g id="dollar" transform="matrix(1,0,0,1,-470,90)">
            <rect x="570" y="0" width="20" height="20" style="fill:none;"/>
            <g id="_-1" serif:id="$1" transform="matrix(0,-0.0889855,0.0889855,0,372.563,535.657)">
                <path d="M5852,2331L5962,2331" style="fill:none;fill-rule:nonzero;stroke:rgb(11,171,115);stroke-width:6.74px;"/>
            </g>
            <g id="_-2" serif:id="$2" transform="matrix(-0.0763044,-0.0457827,0.0457827,-0.0763044,922.965,457.236)">
                <path d="M5892.3,2282.43L5881.66,2284.14L5870.35,2288.6L5860.91,2294.26L5856.45,2300.43L5854.74,2307.29L5855.77,2314.84L5859.37,2320.84L5865.54,2325.3L5873.26,2326.5L5908.25,2326.5C5908.25,2326.5 5915.96,2327.7 5915.96,2327.7L5922.14,2332.16L5925.74,2338.16L5926.77,2345.71L5925.05,2352.57L5920.59,2358.74L5910.82,2365.77L5900.36,2369.72L5888.35,2371.09" style="fill:none;fill-rule:nonzero;stroke:rgb(11,171,115);stroke-width:6.74px;"/>
            </g>
        </g>
    </g>
</svg>
