<?xml version="1.0" encoding="UTF-8" standalone="no"?>
<!DOCTYPE svg PUBLIC "-//W3C//DTD SVG 1.1//EN" "http://www.w3.org/Graphics/SVG/1.1/DTD/svg11.dtd">
<svg width="100%" height="100%" viewBox="0 0 20 20" version="1.1" xmlns="http://www.w3.org/2000/svg" xmlns:xlink="http://www.w3.org/1999/xlink" xml:space="preserve" xmlns:serif="http://www.serif.com/" style="fill-rule:evenodd;clip-rule:evenodd;stroke-linecap:round;stroke-linejoin:round;stroke-miterlimit:10;">
    <g transform="matrix(1,0,0,1,-80,-30)">
        <g id="E" transform="matrix(1,0,0,1,-50,30)">
            <rect x="130" y="0" width="20" height="20" style="fill:none;"/>
            <g id="e" transform="matrix(-0.0889855,0,0,-0.0889855,655.004,178.977)">
                <path d="M5763,1846L5794,1846L5801,1847L5807,1851L5811,1857C5811,1857 5812,1864 5812,1864L5812,1895L5811,1903L5806,1911L5800,1916L5792,1919L5783,1919L5775,1916L5769,1911L5765,1903L5763,1895L5763,1883L5812,1883" style="fill:none;fill-rule:nonzero;stroke:rgb(11,171,115);stroke-width:6.74px;"/>
            </g>
        </g>
    </g>
</svg>
