<?xml version="1.0" encoding="UTF-8" standalone="no"?>
<!DOCTYPE svg PUBLIC "-//W3C//DTD SVG 1.1//EN" "http://www.w3.org/Graphics/SVG/1.1/DTD/svg11.dtd">
<svg width="100%" height="100%" viewBox="0 0 20 20" version="1.1" xmlns="http://www.w3.org/2000/svg" xmlns:xlink="http://www.w3.org/1999/xlink" xml:space="preserve" xmlns:serif="http://www.serif.com/" style="fill-rule:evenodd;clip-rule:evenodd;stroke-linecap:round;stroke-linejoin:round;stroke-miterlimit:10;">
    <g transform="matrix(1,0,0,1,-280,-30)">
        <g id="o" transform="matrix(1,0,0,1,10,30)">
            <rect x="270" y="0" width="20" height="20" style="fill:none;"/>
            <g id="o1" serif:id="o" transform="matrix(0,-0.0889855,0.0889855,0,116.801,589.334)">
                <path d="M6506.5,1809.5L6514.5,1811.5L6522.5,1815.5L6527.5,1821.5L6530.5,1829.5L6530.5,1838.5L6527.5,1846.5L6522.5,1852.5L6514.5,1857.5L6506.5,1858.5L6481.5,1858.5L6473.5,1857.5L6466.5,1852.5L6460.5,1846.5L6457.5,1838.5L6457.5,1829.5L6460.5,1821.5L6466.5,1815.5L6473.5,1811.5L6481.5,1809.5L6506.5,1809.5" style="fill:none;fill-rule:nonzero;stroke:rgb(11,171,115);stroke-width:6.74px;"/>
            </g>
        </g>
    </g>
</svg>
