<?xml version="1.0" encoding="UTF-8" standalone="no"?>
<!DOCTYPE svg PUBLIC "-//W3C//DTD SVG 1.1//EN" "http://www.w3.org/Graphics/SVG/1.1/DTD/svg11.dtd">
<svg width="100%" height="100%" viewBox="0 0 20 20" version="1.1" xmlns="http://www.w3.org/2000/svg" xmlns:xlink="http://www.w3.org/1999/xlink" xml:space="preserve" xmlns:serif="http://www.serif.com/" style="fill-rule:evenodd;clip-rule:evenodd;stroke-linecap:round;stroke-linejoin:round;stroke-miterlimit:10;">
    <g transform="matrix(1,0,0,1,-320,-30)">
        <g id="q" transform="matrix(1,0,0,1,50,30)">
            <rect x="270" y="0" width="20" height="20" style="fill:none;"/>
            <g id="q1" serif:id="q" transform="matrix(0,-0.0889855,0.0889855,0,119.515,610.824)">
                <path d="M6662,1828L6772,1828C6772,1828 6772,1798 6772,1798C6772,1798 6771,1790 6771,1790L6767,1785L6761,1781L6754,1779L6717,1779C6717,1779 6710,1781 6710,1781L6704,1785L6700,1790L6699,1798C6699,1798 6699,1828 6699,1828" style="fill:none;fill-rule:nonzero;stroke:rgb(11,171,115);stroke-width:6.74px;"/>
            </g>
        </g>
    </g>
</svg>
