<?xml version="1.0" encoding="UTF-8" standalone="no"?>
<!DOCTYPE svg PUBLIC "-//W3C//DTD SVG 1.1//EN" "http://www.w3.org/Graphics/SVG/1.1/DTD/svg11.dtd">
<svg width="100%" height="100%" viewBox="0 0 20 20" version="1.1" xmlns="http://www.w3.org/2000/svg" xmlns:xlink="http://www.w3.org/1999/xlink" xml:space="preserve" xmlns:serif="http://www.serif.com/" style="fill-rule:evenodd;clip-rule:evenodd;stroke-linecap:round;stroke-linejoin:round;stroke-miterlimit:10;">
    <g transform="matrix(1,0,0,1,-440,-90)">
        <g id="question" transform="matrix(1,0,0,1,-130,90)">
            <rect x="570" y="0" width="20" height="20" style="fill:none;"/>
            <g id="_-1" serif:id="?1" transform="matrix(-0.0244462,-0.0855617,0.0855617,-0.0244462,497.435,569.006)">
                <path d="M5768.22,2612.51L5782.64,2616.64L5790.75,2621.03L5796.38,2626.8L5806.41,2646.3C5806.41,2646.3 5809.7,2649.33 5809.7,2649.33L5814.24,2651.66C5814.24,2651.66 5821.52,2651.66 5821.52,2651.66L5828.39,2649.46L5833.88,2644.79L5836.76,2638.34C5836.76,2638.34 5839.92,2623.64 5839.92,2623.64L5839.24,2607.84" style="fill:none;fill-rule:nonzero;stroke:rgb(11,171,115);stroke-width:6.74px;"/>
            </g>
            <g id="_-2" serif:id="?2" transform="matrix(0,-0.0889855,0.0889855,0,335.601,531.366)">
                <path d="M5810,2749L5804,2749L5804,2743L5810,2743L5810,2749" style="fill:none;fill-rule:nonzero;stroke:rgb(11,171,115);stroke-width:6.74px;"/>
            </g>
        </g>
    </g>
</svg>
