<?xml version="1.0" encoding="UTF-8" standalone="no"?>
<!DOCTYPE svg PUBLIC "-//W3C//DTD SVG 1.1//EN" "http://www.w3.org/Graphics/SVG/1.1/DTD/svg11.dtd">
<svg width="100%" height="100%" viewBox="0 0 20 20" version="1.1" xmlns="http://www.w3.org/2000/svg" xmlns:xlink="http://www.w3.org/1999/xlink" xml:space="preserve" xmlns:serif="http://www.serif.com/" style="fill-rule:evenodd;clip-rule:evenodd;stroke-linecap:round;stroke-linejoin:round;stroke-miterlimit:10;">
    <g transform="matrix(1,0,0,1,-340,0)">
        <g id="R" transform="matrix(1,0,0,1,70,0)">
            <rect x="270" y="0" width="20" height="20" style="fill:none;"/>
            <g id="R1" transform="matrix(0,-0.0889855,0.0889855,0,101.845,634.005)">
                <path d="M6958,1971L7068,1971L7068,2002L7067,2011L7062,2020L7056,2027L7047,2031L7038,2032L7028,2031L7020,2027L7013,2020L7008,2011L7007,2002L7007,1971" style="fill:none;fill-rule:nonzero;stroke:rgb(11,171,115);stroke-width:6.74px;"/>
            </g>
            <g id="R2" transform="matrix(-0.0391418,-0.0799146,0.0799146,-0.0391418,398.066,655.362)">
                <path d="M7034.72,2001.5L7089.28,2001.5" style="fill:none;fill-rule:nonzero;stroke:rgb(11,171,115);stroke-width:6.74px;"/>
            </g>
        </g>
    </g>
</svg>
