<?xml version="1.0" encoding="UTF-8" standalone="no"?>
<!DOCTYPE svg PUBLIC "-//W3C//DTD SVG 1.1//EN" "http://www.w3.org/Graphics/SVG/1.1/DTD/svg11.dtd">
<svg width="100%" height="100%" viewBox="0 0 20 20" version="1.1" xmlns="http://www.w3.org/2000/svg" xmlns:xlink="http://www.w3.org/1999/xlink" xml:space="preserve" xmlns:serif="http://www.serif.com/" style="fill-rule:evenodd;clip-rule:evenodd;stroke-linecap:round;stroke-linejoin:round;stroke-miterlimit:10;">
    <g transform="matrix(1,0,0,1,-300,-90)">
        <g id="semicolon" transform="matrix(1,0,0,1,-270,90)">
            <rect x="570" y="0" width="20" height="20" style="fill:none;"/>
            <g id="_-1" serif:id=";1" transform="matrix(0,-0.0889855,0.0889855,0,356.824,515.334)">
                <path d="M5688,2505L5688,2511L5682,2511L5682,2505L5688,2505" style="fill:none;fill-rule:nonzero;stroke:rgb(11,171,115);stroke-width:6.74px;"/>
            </g>
            <g id="_-2" serif:id=";2" transform="matrix(-0.0889855,0,0,-0.0889855,1086.15,243.216)">
                <path d="M5685,2566L5691,2566L5691,2572L5685,2572C5685,2572 5685,2566 5685,2566C5685,2566 5691,2542 5691,2542" style="fill:none;fill-rule:nonzero;stroke:rgb(11,171,115);stroke-width:6.74px;"/>
            </g>
        </g>
    </g>
</svg>
